<?xml version="1.0" encoding="UTF-8"?>
<svg width="49px" height="48px" viewBox="0 0 49 48" version="1.1" xmlns="http://www.w3.org/2000/svg" xmlns:xlink="http://www.w3.org/1999/xlink">
    <title>facebook</title>
    <g id="Lowcode-Nocode" stroke="none" stroke-width="1" fill="none" fill-rule="evenodd">
        <g id="Digital-transformation-" transform="translate(-323.000000, -5520.000000)" fill-rule="nonzero">
            <g id="facebook" transform="translate(323.500000, 5520.000000)">
                <path d="M24,0 C10.7664545,0 0,10.7664545 0,24 C0,37.2335455 10.7664545,48 24,48 C37.2335455,48 48,37.2335455 48,24 C48,10.7664545 37.2335455,0 24,0 Z" id="Path" fill="#4366A5"></path>
                <path d="M29.9685813,24.8449206 L26.0639652,24.8449206 C26.0639652,31.0832192 26.0639652,38.7638766 26.0639652,38.7638766 L20.2780955,38.7638766 C20.2780955,38.7638766 20.2780955,31.1576573 20.2780955,24.8449206 L17.5277532,24.8449206 L17.5277532,19.9262064 L20.2780955,19.9262064 L20.2780955,16.7447031 C20.2780955,14.4661242 21.3608314,10.9056634 26.1171353,10.9056634 L30.4026424,10.9220978 L30.4026424,15.6967695 C30.4026424,15.6967695 27.7973093,15.6967695 27.2907436,15.6967695 C26.7841779,15.6967695 26.0649319,15.9500524 26.0649319,17.0366551 L26.0649319,19.9271731 L30.4732136,19.9271731 L29.9685813,24.8449206 Z" id="Path" fill="#FFFFFF"></path>
            </g>
        </g>
    </g>
</svg>