<?xml version="1.0" encoding="UTF-8"?>
<svg width="49px" height="48px" viewBox="0 0 49 48" version="1.1" xmlns="http://www.w3.org/2000/svg" xmlns:xlink="http://www.w3.org/1999/xlink">
    <title>linkedin</title>
    <g id="Lowcode-Nocode" stroke="none" stroke-width="1" fill="none" fill-rule="evenodd">
        <g id="Digital-transformation-" transform="translate(-179.000000, -5520.000000)" fill-rule="nonzero">
            <g id="linkedin" transform="translate(179.500000, 5520.000000)">
                <path d="M24,0 C10.7471924,0 0,10.7471924 0,24 C0,37.2528076 10.7471924,48 24,48 C37.2528076,48 48,37.2528076 48,24 C48,10.7471924 37.2528076,0 24,0 Z" id="Path" fill="#0584C2"></path>
                <g id="Group-3" transform="translate(10.835449, 10.218750)" fill="#FFFFFF">
                    <polygon id="Path" points="6.19042969 26.0625 0.345336938 26.0625 0.345336938 8.47741697 6.19042969 8.47741697"></polygon>
                    <path d="M3.26806641,6.07617188 L3.22998047,6.07617188 C1.26855469,6.07617188 1.77635684e-13,4.72595213 1.77635684e-13,3.03845212 C1.77635684e-13,1.31286619 1.30737309,0 3.30688472,0 C5.30639653,0 6.53686528,1.31286619 6.57495122,3.03845212 C6.57495122,4.72595213 5.30639653,6.07617188 3.26806641,6.07617188 Z" id="Path"></path>
                </g>
                <path d="M38.1020508,36.28125 L32.2576904,36.28125 L32.2576904,26.8736572 C32.2576904,24.5093994 31.411377,22.8969727 29.2965088,22.8969727 C27.6818848,22.8969727 26.7202148,23.9846192 26.2976074,25.0345459 C26.1430664,25.4102783 26.1053467,25.9354248 26.1053467,26.4609375 L26.1053467,36.28125 L20.2606201,36.28125 C20.2606201,36.28125 20.3371582,20.3459473 20.2606201,18.696167 L26.1053467,18.696167 L26.1053467,21.1860352 C26.8820801,19.987793 28.2718506,18.2834473 31.3729248,18.2834473 C35.2185058,18.2834473 38.1020508,20.7967529 38.1020508,26.197998 L38.1020508,36.28125 Z" id="Path" fill="#FFFFFF"></path>
            </g>
        </g>
    </g>
</svg>