<?xml version="1.0" encoding="UTF-8"?>
<svg width="49px" height="48px" viewBox="0 0 49 48" version="1.1" xmlns="http://www.w3.org/2000/svg" xmlns:xlink="http://www.w3.org/1999/xlink">
    <title>Rss Feed</title>
    <g id="Lowcode-Nocode" stroke="none" stroke-width="1" fill="none" fill-rule="evenodd">
        <g id="Digital-transformation-" transform="translate(-395.000000, -5520.000000)" fill-rule="nonzero">
            <g id="Rss-Feed" transform="translate(395.500000, 5520.000000)">
                <path d="M0,24 C1.623249e-15,37.254834 10.745166,48 24,48 C37.254834,48 48,37.254834 48,24 C48,10.745166 37.254834,-2.4348735e-15 24,0 C10.745166,2.4348735e-15 -1.623249e-15,10.745166 0,24 Z" id="Path" fill="#FFA500"></path>
                <g id="Group-2" transform="translate(11.000000, 11.000000)" fill="#FFFFFF">
                    <path d="M3.523,26 C1.577875,26 3.03090886e-14,24.425375 3.03090886e-14,22.481875 C3.03090886e-14,20.538375 1.577875,18.96375 3.523,18.96375 C5.468125,18.96375 7.044375,20.538375 7.044375,22.481875 C7.044375,24.425375 5.468125,26 3.523,26 L3.523,26 Z" id="Path"></path>
                    <path d="M11.9405,26 C11.873875,19.452875 6.55525,14.14075 -4.3298698e-14,14.074125 L-4.3298698e-14,8.86275 C9.44775,8.929375 17.09175,16.563625 17.16,26 L11.9405,26 Z" id="Path"></path>
                    <path d="M20.782125,26 C20.748,14.522625 11.461125,5.263375 0,5.213 L0,0 C14.34875,0.050375 25.9675,11.665875 26,26 L20.782125,26 L20.782125,26 Z" id="Path"></path>
                </g>
            </g>
        </g>
    </g>
</svg>