<svg width="317" height="41" viewBox="0 0 317 41" fill="none" xmlns="http://www.w3.org/2000/svg">
<path fill-rule="evenodd" clip-rule="evenodd" d="M178.082 24.4432C178.278 24.3033 178.38 24.0517 178.38 23.6832V17.3155C178.38 17.0639 178.267 16.8554 178.025 16.69C177.782 16.5219 177.401 16.4385 176.896 16.4385H166.759L166.831 23.6832C166.831 23.9778 166.933 24.2064 167.151 24.3799C167.358 24.5508 167.727 24.6369 168.232 24.6369H176.954C177.506 24.6369 177.875 24.575 178.082 24.4432ZM133.949 28.2996V12.6385H141.749L150.942 24.2979L151.02 24.501V12.6385H155.52V28.2996H147.789L138.504 16.5595L138.449 16.4196V28.2996H133.949ZM269.211 28.3628V16.2757H262.491V12.6385H280.496V14.2231C280.554 15.4552 279.921 16.1963 278.415 16.2757H273.996V25.339C273.929 27.1495 273.237 28.4126 271.041 28.3628H269.211ZM238.882 25.9376V12.6385H251.598C252.677 12.6385 253.574 12.7179 254.29 12.8726C255.003 13.0354 255.588 13.299 256.038 13.6662C256.498 14.0348 256.83 14.5284 257.038 15.1566C257.256 15.7807 257.361 16.5743 257.361 17.5414C257.361 18.5005 257.279 19.3049 257.106 19.9613C256.945 20.6096 256.669 21.1383 256.315 21.5404C255.946 21.9372 255.463 22.2359 254.863 22.4201C254.253 22.6044 253.496 22.7013 252.597 22.7013V22.7752L258.844 28.3628H255.337C253.816 28.2579 252.357 28.0238 251.239 26.9356L244.326 19.7985H251.195C251.665 19.7985 252.092 19.6613 252.459 19.3802C252.817 19.0964 253.002 18.6902 253.002 18.1562C253.002 17.6881 252.828 17.3047 252.47 17.0061C252.125 16.7061 251.713 16.5595 251.253 16.5595H243.669V28.3628H241.828C240.093 28.2579 239.012 27.5504 238.882 25.9376ZM215.195 24.9314V12.6385H231.993V16.2757H219.97V18.9202H231.901V22.0973H219.97V23.2528C219.97 24.3463 220.407 24.7001 221.316 24.7001H231.993V28.3628H218.681C216.589 28.3964 215.345 27.3432 215.195 24.9314ZM84.0403 27.2598C83.223 26.5294 82.8205 25.4493 82.8205 24.0168C82.8205 23.9643 82.8205 23.2057 82.8205 21.7422V19.2591C82.8205 17.7943 82.8205 17.0397 82.8205 17.0007C82.8205 15.5574 83.223 14.4706 84.0403 13.7348C84.8454 13.0071 86.1003 12.6385 87.7913 12.6385H100.963V16.5017H88.3191C87.8586 16.5017 87.5247 16.5743 87.2958 16.7425C87.0777 16.8985 86.9727 17.0976 86.9727 17.3397L86.9175 18.6364V22.3623L86.9727 23.5971C86.9727 23.8917 87.0777 24.1257 87.2958 24.2979C87.5045 24.4714 87.8492 24.5588 88.3191 24.5588H100.963V28.3628H87.7913C86.1003 28.3628 84.8454 27.9956 84.0403 27.2598ZM59.5011 24.9314V12.6385H76.2959V16.2757H64.2767V18.9202H76.2178V22.0973H64.2767V23.2528C64.2767 24.3463 64.7237 24.7001 65.6204 24.7001H76.2959V28.3628H62.9883C60.8919 28.3964 59.6613 27.3432 59.5011 24.9314ZM43.016 25.339V16.2757H38.5972C37.0785 16.1963 36.4578 15.4552 36.5022 14.2231V12.6385H54.5074V16.2757H47.7889V28.3628H45.9713C43.7619 28.4126 43.0712 27.1495 43.016 25.339ZM107.477 28.3628V12.6385H112.262V20.9889C112.802 20.0057 113.93 18.2987 116.265 18.2987H122.465V12.6385H127.24V28.3628H122.465V22.4995H112.262V28.3628H107.477ZM195.533 28.4704L187.09 12.6385H190.563C191.817 12.6385 192.611 13.0569 193.047 13.8922L198.515 24.419L203.864 14.1208C204.406 12.9358 205.545 12.6385 206.566 12.6385H209.938L201.655 28.4704H195.533ZM168.498 28.4704C167.625 28.4462 166.864 28.4018 166.23 28.3211C165.6 28.2417 165.082 28.1072 164.655 27.9189C164.24 27.7346 163.871 27.4643 163.528 27.1199C163.136 26.7648 162.872 26.3694 162.734 25.9537C162.596 25.5287 162.516 25 162.516 24.3611V12.5686C163.424 12.539 170.774 12.5 172.537 12.5C174.286 12.5 175.632 12.5135 176.552 12.5336C177.473 12.5632 178.253 12.6211 178.874 12.7071C179.508 12.7946 180.036 12.9251 180.463 13.1093C180.878 13.2882 181.257 13.5451 181.601 13.8787C181.983 14.2365 182.259 14.6387 182.395 15.0745C182.546 15.5184 182.613 16.0578 182.613 16.7008C182.613 18.2194 182.613 20.0111 182.613 22.0812V24.3611C182.613 25 182.546 25.5287 182.395 25.9537C182.259 26.3694 181.983 26.7648 181.601 27.1199C181.257 27.4643 180.888 27.7346 180.475 27.9189C180.071 28.1072 179.555 28.2417 178.932 28.3211C178.322 28.4018 177.575 28.4462 176.689 28.4704C175.803 28.4946 174.435 28.5 172.595 28.5C170.754 28.5 169.383 28.4946 168.498 28.4704Z" fill="#1077DA"/>
</svg>
